<svg xmlns="http://www.w3.org/2000/svg" fill="none" viewBox="1.08 1.12 534.45 250.08"><path d="M9.58237 150.832H527.029" stroke="#F8686D" stroke-width="17" stroke-linecap="round"/><path d="M15.9706 107.073V60.6724" stroke="#F8686D" stroke-width="17" stroke-linecap="round"/><path d="M60.6882 107.073V82.5519" stroke="#F8686D" stroke-width="17" stroke-linecap="round"/><path d="M105.406 107.073V24.2061" stroke="#F8686D" stroke-width="17" stroke-linecap="round"/><path d="M150.124 107.073V53.3792" stroke="#F8686D" stroke-width="17" stroke-linecap="round"/><path d="M194.841 107.073V75.259" stroke="#F8686D" stroke-width="17" stroke-linecap="round"/><path d="M239.559 107.073V38.7926" stroke="#F8686D" stroke-width="17" stroke-linecap="round"/><path d="M284.276 107.073V60.6724" stroke="#F8686D" stroke-width="17" stroke-linecap="round"/><path d="M418.429 107.073V24.2061" stroke="#F8686D" stroke-width="17" stroke-linecap="round"/><path d="M463.147 107.073V53.3792" stroke="#F8686D" stroke-width="17" stroke-linecap="round"/><path d="M507.865 107.073V75.259" stroke="#F8686D" stroke-width="17" stroke-linecap="round"/><path d="M328.994 107.073V9.61957" stroke="#F8686D" stroke-width="17" stroke-linecap="round"/><path d="M373.712 107.073V82.5519" stroke="#F8686D" stroke-width="17" stroke-linecap="round"/><path d="M26.1598 251.196C22.0075 251.196 18.462 250.747 15.5234 249.85C12.6487 248.888 10.285 247.733 8.43246 246.387C6.64375 245.04 5.30222 243.661 4.40787 242.25C3.51352 240.775 3.0344 239.525 2.97052 238.499C2.90663 237.793 3.13022 237.216 3.64128 236.767C4.15234 236.254 4.69534 235.997 5.27028 235.997H16.1942C16.3858 235.997 16.5455 236.03 16.6733 236.094C16.801 236.158 16.9927 236.286 17.2482 236.478C18.0787 236.927 18.9092 237.504 19.7396 238.21C20.5701 238.851 21.5283 239.428 22.6143 239.941C23.7003 240.454 25.0099 240.711 26.5431 240.711C28.3318 240.711 29.833 240.358 31.0468 239.653C32.2606 238.947 32.8675 237.889 32.8675 236.478C32.8675 235.452 32.58 234.619 32.0051 233.977C31.4301 233.272 30.2483 232.599 28.4596 231.957C26.7348 231.316 24.1156 230.675 20.602 230.033C17.2802 229.264 14.3735 228.27 11.8821 227.051C9.39069 225.769 7.47422 224.133 6.13269 222.145C4.79116 220.093 4.1204 217.624 4.1204 214.738C4.1204 212.173 4.95087 209.704 6.61181 207.331C8.27275 204.958 10.7003 203.034 13.8944 201.559C17.0885 200.02 21.0173 199.251 25.6807 199.251C29.3859 199.251 32.58 199.7 35.2631 200.597C38.01 201.431 40.3098 202.521 42.1623 203.868C44.0788 205.215 45.5162 206.594 46.4744 208.004C47.4326 209.415 47.9437 210.698 48.0076 211.852C48.0715 212.494 47.8798 213.071 47.4326 213.584C46.9855 214.033 46.4744 214.257 45.8995 214.257H35.9338C35.6783 214.257 35.4228 214.225 35.1672 214.161C34.9117 214.033 34.6881 213.904 34.4965 213.776C33.7299 213.391 32.9633 212.878 32.1967 212.237C31.4301 211.596 30.5358 211.019 29.5136 210.506C28.4915 209.993 27.2139 209.736 25.6807 209.736C23.9559 209.736 22.6143 210.121 21.6561 210.89C20.6979 211.66 20.2188 212.654 20.2188 213.872C20.2188 214.706 20.4743 215.476 20.9853 216.181C21.5603 216.887 22.6782 217.528 24.3392 218.105C26.064 218.682 28.7151 219.324 32.2925 220.029C36.7004 220.734 40.2139 221.889 42.8331 223.492C45.4523 225.031 47.3049 226.859 48.3909 228.975C49.4769 231.027 50.0199 233.208 50.0199 235.516C50.0199 238.595 49.0936 241.32 47.241 243.693C45.4523 246.066 42.7692 247.926 39.1918 249.272C35.6144 250.555 31.2704 251.196 26.1598 251.196ZM82.191 251.196C76.8249 251.196 72.2893 250.331 68.5841 248.599C64.9428 246.868 62.1321 244.399 60.1517 241.192C58.2353 237.921 57.1493 234.041 56.8937 229.552C56.8299 228.27 56.7979 226.827 56.7979 225.224C56.7979 223.556 56.8299 222.113 56.8937 220.895C57.1493 216.341 58.2992 212.462 60.3434 209.255C62.3876 206.049 65.2303 203.579 68.8716 201.848C72.5767 200.116 77.0166 199.251 82.191 199.251C87.4294 199.251 91.8692 200.116 95.5105 201.848C99.2157 203.579 102.09 206.049 104.135 209.255C106.179 212.462 107.329 216.341 107.584 220.895C107.648 222.113 107.68 223.556 107.68 225.224C107.68 226.827 107.648 228.27 107.584 229.552C107.329 234.041 106.211 237.921 104.23 241.192C102.314 244.399 99.5032 246.868 95.798 248.599C92.1567 250.331 87.621 251.196 82.191 251.196ZM82.191 239.46C85.0657 239.46 87.1419 238.595 88.4196 236.863C89.7611 235.132 90.5277 232.534 90.7193 229.071C90.7832 228.109 90.8151 226.827 90.8151 225.224C90.8151 223.62 90.7832 222.338 90.7193 221.376C90.5277 217.977 89.7611 215.412 88.4196 213.68C87.1419 211.884 85.0657 210.987 82.191 210.987C79.3802 210.987 77.304 211.884 75.9625 213.68C74.621 215.412 73.8863 217.977 73.7586 221.376C73.6947 222.338 73.6627 223.62 73.6627 225.224C73.6627 226.827 73.6947 228.109 73.7586 229.071C73.8863 232.534 74.621 235.132 75.9625 236.863C77.304 238.595 79.3802 239.46 82.191 239.46ZM135.407 251.196C131.766 251.196 128.508 250.363 125.633 248.695C122.822 247.028 120.618 244.591 119.021 241.384C117.424 238.114 116.626 234.138 116.626 229.456V202.618C116.626 201.912 116.849 201.335 117.296 200.886C117.743 200.437 118.318 200.213 119.021 200.213H130.999C131.702 200.213 132.277 200.437 132.724 200.886C133.171 201.335 133.395 201.912 133.395 202.618V228.879C133.395 235.164 136.205 238.306 141.827 238.306C144.446 238.306 146.522 237.504 148.056 235.901C149.653 234.234 150.451 231.893 150.451 228.879V202.618C150.451 201.912 150.675 201.335 151.122 200.886C151.569 200.437 152.144 200.213 152.847 200.213H164.825C165.527 200.213 166.102 200.437 166.55 200.886C166.997 201.335 167.22 201.912 167.22 202.618V247.829C167.22 248.535 166.997 249.112 166.55 249.561C166.102 250.01 165.527 250.234 164.825 250.234H153.709C153.07 250.234 152.495 250.01 151.984 249.561C151.537 249.112 151.314 248.535 151.314 247.829V244.174C149.653 246.483 147.481 248.246 144.798 249.465C142.178 250.619 139.048 251.196 135.407 251.196ZM180.887 250.234C180.185 250.234 179.61 250.01 179.163 249.561C178.715 249.112 178.492 248.535 178.492 247.829V202.618C178.492 201.912 178.715 201.335 179.163 200.886C179.61 200.437 180.185 200.213 180.887 200.213H191.907C192.61 200.213 193.185 200.437 193.632 200.886C194.079 201.335 194.303 201.912 194.303 202.618V206.273C195.964 204.285 198.136 202.618 200.819 201.271C203.502 199.924 206.664 199.251 210.305 199.251C214.01 199.251 217.268 200.084 220.079 201.752C222.954 203.419 225.19 205.888 226.787 209.159C228.448 212.365 229.278 216.309 229.278 220.991V247.829C229.278 248.535 229.023 249.112 228.512 249.561C228.064 250.01 227.521 250.234 226.883 250.234H214.809C214.17 250.234 213.595 250.01 213.084 249.561C212.637 249.112 212.413 248.535 212.413 247.829V221.568C212.413 218.554 211.679 216.245 210.209 214.642C208.804 212.975 206.696 212.141 203.885 212.141C201.266 212.141 199.158 212.975 197.561 214.642C196.027 216.245 195.261 218.554 195.261 221.568V247.829C195.261 248.535 195.005 249.112 194.494 249.561C194.047 250.01 193.504 250.234 192.865 250.234H180.887ZM258.562 251.196C255.496 251.196 252.717 250.715 250.225 249.753C247.798 248.727 245.69 247.252 243.901 245.328C242.176 243.34 240.835 240.968 239.876 238.21C238.918 235.388 238.375 232.182 238.247 228.59C238.183 227.308 238.152 226.185 238.152 225.224C238.152 224.197 238.183 223.075 238.247 221.857C238.375 218.394 238.918 215.283 239.876 212.526C240.835 209.768 242.176 207.395 243.901 205.407C245.626 203.419 247.734 201.912 250.225 200.886C252.717 199.796 255.496 199.251 258.562 199.251C261.756 199.251 264.503 199.796 266.803 200.886C269.103 201.912 271.051 203.259 272.648 204.926V184.34C272.648 183.635 272.872 183.058 273.319 182.609C273.766 182.16 274.341 181.935 275.044 181.935H286.734C287.373 181.935 287.916 182.16 288.363 182.609C288.874 183.058 289.13 183.635 289.13 184.34V247.829C289.13 248.535 288.874 249.112 288.363 249.561C287.916 250.01 287.373 250.234 286.734 250.234H275.906C275.203 250.234 274.628 250.01 274.181 249.561C273.734 249.112 273.51 248.535 273.51 247.829V244.751C271.977 246.611 269.997 248.15 267.569 249.369C265.142 250.587 262.139 251.196 258.562 251.196ZM263.736 238.306C265.908 238.306 267.601 237.857 268.815 236.959C270.093 235.997 271.019 234.779 271.594 233.304C272.233 231.829 272.584 230.226 272.648 228.494C272.712 227.212 272.744 225.993 272.744 224.839C272.744 223.684 272.712 222.498 272.648 221.279C272.584 219.676 272.233 218.201 271.594 216.855C270.955 215.444 269.997 214.321 268.719 213.488C267.442 212.59 265.781 212.141 263.736 212.141C261.628 212.141 259.935 212.59 258.658 213.488C257.444 214.385 256.582 215.604 256.071 217.143C255.559 218.682 255.24 220.382 255.112 222.241C254.921 224.229 254.921 226.218 255.112 228.206C255.24 230.065 255.559 231.765 256.071 233.304C256.582 234.843 257.444 236.062 258.658 236.959C259.935 237.857 261.628 238.306 263.736 238.306ZM330.895 251.196C327.318 251.196 324.315 250.587 321.888 249.369C319.524 248.15 317.576 246.611 316.043 244.751V247.829C316.043 248.535 315.787 249.112 315.276 249.561C314.829 250.01 314.286 250.234 313.647 250.234H302.819C302.116 250.234 301.541 250.01 301.094 249.561C300.647 249.112 300.423 248.535 300.423 247.829V184.34C300.423 183.635 300.647 183.058 301.094 182.609C301.541 182.16 302.116 181.935 302.819 181.935H314.509C315.212 181.935 315.787 182.16 316.234 182.609C316.681 183.058 316.905 183.635 316.905 184.34V204.926C318.438 203.259 320.355 201.912 322.654 200.886C325.018 199.796 327.765 199.251 330.895 199.251C334.089 199.251 336.9 199.796 339.328 200.886C341.819 201.912 343.927 203.419 345.652 205.407C347.377 207.395 348.718 209.768 349.677 212.526C350.635 215.283 351.178 218.394 351.306 221.857C351.37 223.075 351.401 224.197 351.401 225.224C351.401 226.185 351.37 227.308 351.306 228.59C351.178 232.182 350.603 235.388 349.581 238.21C348.623 240.968 347.281 243.34 345.556 245.328C343.831 247.252 341.755 248.727 339.328 249.753C336.9 250.715 334.089 251.196 330.895 251.196ZM325.721 238.306C327.893 238.306 329.586 237.857 330.799 236.959C332.013 236.062 332.876 234.843 333.387 233.304C333.962 231.765 334.313 230.065 334.441 228.206C334.568 226.218 334.568 224.229 334.441 222.241C334.313 220.382 333.962 218.682 333.387 217.143C332.876 215.604 332.013 214.385 330.799 213.488C329.586 212.59 327.893 212.141 325.721 212.141C323.74 212.141 322.111 212.59 320.834 213.488C319.556 214.321 318.598 215.444 317.959 216.855C317.32 218.201 316.969 219.676 316.905 221.279C316.841 222.498 316.809 223.684 316.809 224.839C316.809 225.993 316.841 227.212 316.905 228.494C316.969 230.226 317.288 231.829 317.863 233.304C318.438 234.779 319.365 235.997 320.642 236.959C321.92 237.857 323.613 238.306 325.721 238.306ZM363.27 250.234C362.568 250.234 361.993 250.01 361.545 249.561C361.098 249.112 360.875 248.535 360.875 247.829V202.618C360.875 201.912 361.098 201.335 361.545 200.886C361.993 200.437 362.568 200.213 363.27 200.213H374.577C375.216 200.213 375.759 200.437 376.206 200.886C376.717 201.335 376.973 201.912 376.973 202.618V247.829C376.973 248.535 376.717 249.112 376.206 249.561C375.759 250.01 375.216 250.234 374.577 250.234H363.27ZM363.174 192.998C362.472 192.998 361.897 192.774 361.45 192.325C361.002 191.876 360.779 191.299 360.779 190.593V182.032C360.779 181.326 361.002 180.749 361.45 180.3C361.897 179.787 362.472 179.531 363.174 179.531H374.577C375.28 179.531 375.855 179.787 376.302 180.3C376.813 180.749 377.069 181.326 377.069 182.032V190.593C377.069 191.299 376.813 191.876 376.302 192.325C375.855 192.774 375.28 192.998 374.577 192.998H363.174ZM413.688 250.234C409.6 250.234 406.054 249.593 403.052 248.31C400.113 246.964 397.845 244.912 396.248 242.154C394.651 239.332 393.853 235.709 393.853 231.284V212.814H386.378C385.676 212.814 385.069 212.59 384.558 212.141C384.111 211.692 383.887 211.115 383.887 210.409V202.618C383.887 201.912 384.111 201.335 384.558 200.886C385.069 200.437 385.676 200.213 386.378 200.213H393.853V184.34C393.853 183.635 394.076 183.058 394.523 182.609C395.034 182.16 395.609 181.935 396.248 181.935H407.364C408.066 181.935 408.641 182.16 409.089 182.609C409.536 183.058 409.759 183.635 409.759 184.34V200.213H421.737C422.44 200.213 423.015 200.437 423.462 200.886C423.909 201.335 424.133 201.912 424.133 202.618V210.409C424.133 211.115 423.909 211.692 423.462 212.141C423.015 212.59 422.44 212.814 421.737 212.814H409.759V229.937C409.759 232.118 410.175 233.849 411.005 235.132C411.835 236.414 413.241 237.056 415.221 237.056H422.6C423.302 237.056 423.877 237.28 424.324 237.729C424.772 238.178 424.995 238.755 424.995 239.46V247.829C424.995 248.535 424.772 249.112 424.324 249.561C423.877 250.01 423.302 250.234 422.6 250.234H413.688ZM455.927 251.196C448.389 251.196 442.384 249.144 437.912 245.04C433.44 240.935 431.109 234.843 430.917 226.763C430.917 226.314 430.917 225.737 430.917 225.031C430.917 224.326 430.917 223.781 430.917 223.396C431.109 218.329 432.227 214.001 434.271 210.409C436.379 206.754 439.254 203.996 442.895 202.137C446.6 200.213 450.912 199.251 455.831 199.251C461.453 199.251 466.084 200.373 469.726 202.618C473.431 204.862 476.21 207.908 478.062 211.756C479.915 215.604 480.841 219.997 480.841 224.935V227.244C480.841 227.949 480.586 228.526 480.075 228.975C479.627 229.424 479.084 229.649 478.446 229.649H447.782C447.782 229.713 447.782 229.809 447.782 229.937C447.782 230.065 447.782 230.194 447.782 230.322C447.846 232.182 448.165 233.881 448.74 235.42C449.315 236.959 450.21 238.178 451.423 239.076C452.637 239.974 454.106 240.422 455.831 240.422C457.109 240.422 458.163 240.23 458.993 239.845C459.888 239.396 460.622 238.915 461.197 238.402C461.772 237.825 462.22 237.344 462.539 236.959C463.114 236.318 463.561 235.933 463.88 235.805C464.264 235.613 464.839 235.516 465.605 235.516H477.487C478.126 235.516 478.637 235.709 479.021 236.094C479.468 236.414 479.659 236.895 479.595 237.537C479.532 238.627 478.989 239.941 477.966 241.481C476.944 243.02 475.443 244.559 473.463 246.098C471.546 247.573 469.119 248.791 466.18 249.753C463.242 250.715 459.824 251.196 455.927 251.196ZM447.782 220.125H463.976V219.933C463.976 217.881 463.657 216.085 463.018 214.546C462.443 213.007 461.517 211.82 460.239 210.987C459.025 210.153 457.556 209.736 455.831 209.736C454.106 209.736 452.637 210.153 451.423 210.987C450.273 211.82 449.379 213.007 448.74 214.546C448.101 216.085 447.782 217.881 447.782 219.933V220.125ZM510.331 251.196C506.178 251.196 502.633 250.747 499.694 249.85C496.819 248.888 494.456 247.733 492.603 246.387C490.815 245.04 489.473 243.661 488.579 242.25C487.684 240.775 487.205 239.525 487.141 238.499C487.077 237.793 487.301 237.216 487.812 236.767C488.323 236.254 488.866 235.997 489.441 235.997H500.365C500.557 235.997 500.716 236.03 500.844 236.094C500.972 236.158 501.163 236.286 501.419 236.478C502.249 236.927 503.08 237.504 503.91 238.21C504.741 238.851 505.699 239.428 506.785 239.941C507.871 240.454 509.181 240.711 510.714 240.711C512.503 240.711 514.004 240.358 515.218 239.653C516.431 238.947 517.038 237.889 517.038 236.478C517.038 235.452 516.751 234.619 516.176 233.977C515.601 233.272 514.419 232.599 512.63 231.957C510.906 231.316 508.286 230.675 504.773 230.033C501.451 229.264 498.544 228.27 496.053 227.051C493.561 225.769 491.645 224.133 490.303 222.145C488.962 220.093 488.291 217.624 488.291 214.738C488.291 212.173 489.122 209.704 490.783 207.331C492.443 204.958 494.871 203.034 498.065 201.559C501.259 200.02 505.188 199.251 509.851 199.251C513.557 199.251 516.751 199.7 519.434 200.597C522.181 201.431 524.48 202.521 526.333 203.868C528.25 205.215 529.687 206.594 530.645 208.004C531.603 209.415 532.114 210.698 532.178 211.852C532.242 212.494 532.051 213.071 531.603 213.584C531.156 214.033 530.645 214.257 530.07 214.257H520.105C519.849 214.257 519.593 214.225 519.338 214.161C519.082 214.033 518.859 213.904 518.667 213.776C517.901 213.391 517.134 212.878 516.367 212.237C515.601 211.596 514.707 211.019 513.684 210.506C512.662 209.993 511.385 209.736 509.851 209.736C508.127 209.736 506.785 210.121 505.827 210.89C504.869 211.66 504.39 212.654 504.39 213.872C504.39 214.706 504.645 215.476 505.156 216.181C505.731 216.887 506.849 217.528 508.51 218.105C510.235 218.682 512.886 219.324 516.463 220.029C520.871 220.734 524.385 221.889 527.004 223.492C529.623 225.031 531.476 226.859 532.562 228.975C533.648 231.027 534.191 233.208 534.191 235.516C534.191 238.595 533.264 241.32 531.412 243.693C529.623 246.066 526.94 247.926 523.363 249.272C519.785 250.555 515.441 251.196 510.331 251.196Z" fill="#F8686D"/></svg>