<svg width="130" height="130" viewBox="0 0 130 130" fill="none" xmlns="http://www.w3.org/2000/svg">
<rect width="130" height="130" fill="#181D1E"/>
<path d="M40.202 91.74C36.9953 91.74 34.2573 91.3947 31.988 90.704C29.768 89.964 27.9427 89.076 26.512 88.04C25.1307 87.004 24.0947 85.9433 23.404 84.858C22.7133 83.7233 22.3433 82.7613 22.294 81.972C22.2447 81.4293 22.4173 80.9853 22.812 80.64C23.2067 80.2453 23.626 80.048 24.07 80.048H32.506C32.654 80.048 32.7773 80.0727 32.876 80.122C32.9747 80.1713 33.1227 80.27 33.32 80.418C33.9613 80.7633 34.6027 81.2073 35.244 81.75C35.8853 82.2433 36.6253 82.6873 37.464 83.082C38.3027 83.4767 39.314 83.674 40.498 83.674C41.8793 83.674 43.0387 83.4027 43.976 82.86C44.9133 82.3173 45.382 81.5033 45.382 80.418C45.382 79.6287 45.16 78.9873 44.716 78.494C44.272 77.9513 43.3593 77.4333 41.978 76.94C40.646 76.4467 38.6233 75.9533 35.91 75.46C33.3447 74.868 31.1 74.1033 29.176 73.166C27.252 72.1793 25.772 70.9213 24.736 69.392C23.7 67.8133 23.182 65.914 23.182 63.694C23.182 61.7207 23.8233 59.8213 25.106 57.996C26.3887 56.1707 28.2633 54.6907 30.73 53.556C33.1967 52.372 36.2307 51.78 39.832 51.78C42.6933 51.78 45.16 52.1253 47.232 52.816C49.3533 53.4573 51.1293 54.296 52.56 55.332C54.04 56.368 55.15 57.4287 55.89 58.514C56.63 59.5993 57.0247 60.586 57.074 61.474C57.1233 61.9673 56.9753 62.4113 56.63 62.806C56.2847 63.1513 55.89 63.324 55.446 63.324H47.75C47.5527 63.324 47.3553 63.2993 47.158 63.25C46.9607 63.1513 46.788 63.0527 46.64 62.954C46.048 62.658 45.456 62.2633 44.864 61.77C44.272 61.2767 43.5813 60.8327 42.792 60.438C42.0027 60.0433 41.016 59.846 39.832 59.846C38.5 59.846 37.464 60.142 36.724 60.734C35.984 61.326 35.614 62.0907 35.614 63.028C35.614 63.6693 35.8113 64.2613 36.206 64.804C36.65 65.3467 37.5133 65.84 38.796 66.284C40.128 66.728 42.1753 67.2213 44.938 67.764C48.342 68.3067 51.0553 69.1947 53.078 70.428C55.1007 71.612 56.5313 73.018 57.37 74.646C58.2087 76.2247 58.628 77.902 58.628 79.678C58.628 82.046 57.9127 84.1427 56.482 85.968C55.1007 87.7933 53.0287 89.224 50.266 90.26C47.5033 91.2467 44.1487 91.74 40.202 91.74ZM88.8003 91.74C86.0377 91.74 83.719 91.2713 81.8443 90.334C80.019 89.3967 78.5143 88.2127 77.3303 86.782V89.15C77.3303 89.6927 77.133 90.1367 76.7383 90.482C76.393 90.8273 75.9737 91 75.4803 91H67.1183C66.5757 91 66.1317 90.8273 65.7863 90.482C65.441 90.1367 65.2683 89.6927 65.2683 89.15V40.31C65.2683 39.7673 65.441 39.3233 65.7863 38.978C66.1317 38.6327 66.5757 38.46 67.1183 38.46H76.1463C76.689 38.46 77.133 38.6327 77.4783 38.978C77.8237 39.3233 77.9963 39.7673 77.9963 40.31V56.146C79.1803 54.8633 80.6603 53.8273 82.4363 53.038C84.2617 52.1993 86.383 51.78 88.8003 51.78C91.267 51.78 93.4377 52.1993 95.3123 53.038C97.2363 53.8273 98.8643 54.9867 100.196 56.516C101.528 58.0453 102.564 59.8707 103.304 61.992C104.044 64.1133 104.464 66.506 104.562 69.17C104.612 70.1073 104.636 70.9707 104.636 71.76C104.636 72.5 104.612 73.3633 104.562 74.35C104.464 77.1127 104.02 79.5793 103.23 81.75C102.49 83.8713 101.454 85.6967 100.122 87.226C98.7903 88.706 97.187 89.8407 95.3123 90.63C93.4377 91.37 91.267 91.74 88.8003 91.74ZM84.8043 81.824C86.4817 81.824 87.789 81.4787 88.7263 80.788C89.6637 80.0973 90.3297 79.16 90.7243 77.976C91.1683 76.792 91.4397 75.4847 91.5383 74.054C91.637 72.5247 91.637 70.9953 91.5383 69.466C91.4397 68.0353 91.1683 66.728 90.7243 65.544C90.3297 64.36 89.6637 63.4227 88.7263 62.732C87.789 62.0413 86.4817 61.696 84.8043 61.696C83.275 61.696 82.017 62.0413 81.0303 62.732C80.0437 63.3733 79.3037 64.2367 78.8103 65.322C78.317 66.358 78.0457 67.4927 77.9963 68.726C77.947 69.6633 77.9223 70.576 77.9223 71.464C77.9223 72.352 77.947 73.2893 77.9963 74.276C78.0457 75.608 78.2923 76.8413 78.7363 77.976C79.1803 79.1107 79.8957 80.048 80.8823 80.788C81.869 81.4787 83.1763 81.824 84.8043 81.824Z" fill="#F8686D"/>
</svg>